<svg xmlns="http://www.w3.org/2000/svg" viewBox="0 0 283.46 81.52"><defs><style>.cls-1{fill:#243e92;}.cls-2{fill:#e99123;}</style></defs><title>LOGO-Preferencial</title><g id="Layer_2" data-name="Layer 2"><g id="Page_3" data-name="Page 3"><path class="cls-1" d="M69,52.29a70.67,70.67,0,0,0-8.15-1.35,7.12,7.12,0,0,1,.83,3.74c-.21,6.08-7.8,12.62-17,17.45-10.23,5.41-22.49,8.78-29.55,8.78-4.83,0-15.33-3.22-15.12-9.3C.42,60,29,49,50,49a69.07,69.07,0,0,1,7.32.41C55,46.53,49,44.5,43.37,42.89c-4.15-1.2-8.26-2.29-10.85-3.33a5.76,5.76,0,0,1-2.65-1.86c-2-2.55.52-6.18,4.41-9.2,6.13-4.78,16.83-8.78,25.56-8.78,5.45,0,9.25,3.54,9,8.83C68.72,33,55.16,40.4,51.94,40.4c-.36,0-.62-.32,0-.63,5.56-3.53,14-11.11,14.18-15.11.05-1.15-.72-2-2.8-2-13.3,0-32.36,11.79-28.21,15.84.73.68,4.57,1.56,9.2,2.86C50.07,43,57,45.49,60.05,49.69a64.92,64.92,0,0,1,8.83,2C69.4,51.88,69.45,52.39,69,52.29ZM58.07,50.73c-1.66-.1-3.37-.1-5-.1C30.39,50.63,3.64,65.28,3.33,74c-.11,2.45,4.26,3.22,5.81,3.22,9,0,20.73-3.74,30.39-8.72,10.49-5.35,18.6-12,18.75-16.62A4.23,4.23,0,0,0,58.07,50.73Z"/><path class="cls-1" d="M86.58,41.07c3,0,5.67,3.22,5.56,5.87S79.37,58.11,70.27,58.16a15.54,15.54,0,0,0-2.85,6.28c0,.79.46,1.1,1.19,1.1,2.6,0,7.33-2.44,10.44-4.16A96.79,96.79,0,0,0,94.12,51.25c.2-.15.72.26.52.47C87.57,59.3,74.38,68.91,69.39,68.91c-2.34,0-6.34-4-6.28-6.54a13,13,0,0,1,2.65-6.49A46,46,0,0,1,77.08,45C80.71,42.63,84,41.07,86.58,41.07ZM71.31,56.81c4.11-.83,9.4-4.1,12.89-6.75,3.79-2.81,5.19-5,5.24-5.67,0-.46-.31-.57-.62-.57C84.82,43.82,76.56,50.73,71.31,56.81Z"/><path class="cls-1" d="M91.2,64.81c0,.15,0,.26.26.26,1,0,9.66-7.12,16.52-13.82.31-.36.73,0,.47.36a87.54,87.54,0,0,1-7.07,8c-3.43,3.59-9.45,9.35-11,9.35a3.37,3.37,0,0,1-2.13-1.09c-1.09-1.09-2.08-2.54-2-3.53a2.45,2.45,0,0,1,.27-.83c1.09-2.75,5.66-9.61,10.07-15.79,5.14-7.12,11.79-16,14.08-20.1,1.09-2.13,1.66-3.85.78-4.31,0,0,.36-.42,1.61.67,1,.88,3,4,2.91,4.73a.68.68,0,0,1-.11.31l-13.56,18.7C102,48.08,91.25,62.63,91.2,64.81Z"/><path class="cls-1" d="M124.86,41.07c3,0,5.66,3.22,5.56,5.87s-12.78,11.17-21.87,11.22a15.75,15.75,0,0,0-2.86,6.28c0,.79.47,1.1,1.2,1.1,2.59,0,7.32-2.44,10.44-4.16a96.73,96.73,0,0,0,15.06-10.13c.21-.15.73.26.52.47-7.06,7.58-20.25,17.19-25.24,17.19-2.34,0-6.34-4-6.29-6.54A13.08,13.08,0,0,1,104,55.88,46.06,46.06,0,0,1,115.36,45C119,42.63,122.31,41.07,124.86,41.07ZM109.59,56.81c4.1-.83,9.4-4.1,12.88-6.75,3.79-2.81,5.19-5,5.25-5.67,0-.46-.31-.57-.63-.57C123.1,43.82,114.84,50.73,109.59,56.81Z"/><path class="cls-1" d="M135.77,54.79c-3.74,4.36-5.35,7.89-5.51,9.45a1.1,1.1,0,0,0,1.2,1.3,10.7,10.7,0,0,0,3.89-1,83.86,83.86,0,0,0,20-13.25c.2-.15.72.26.52.47C149.27,59.15,137,68.91,132,68.91c-1.87,0-6.18-3.89-6.12-6.44.05-4.83,6.49-12.26,12.88-16.93A22.63,22.63,0,0,1,148.85,41l.52-.05a5.16,5.16,0,0,1,4.94,4.78c-.05,1.35-4.31,5.09-5.82,5.61-.16,0-.16-.11-.05-.26,1-1.51,4.05-5.41,4.05-6.44a.85.85,0,0,0-.88-1C147.71,43.67,140.49,49.12,135.77,54.79Z"/><path class="cls-1" d="M177.08,28.74A1.07,1.07,0,0,1,177,29l-2.13,2.92-2.09,2.87L163.57,47.7c-.34.39-11,14.91-11.08,17.1,0,.17,0,.28.28.28,1,0,9.62-7.14,16.49-13.84.33-.34.73,0,.45.4a91.48,91.48,0,0,1-7,7.93c-3.43,3.6-9.45,9.34-11,9.34a3.33,3.33,0,0,1-2.13-1.07c-1.07-1.13-2.09-2.59-2-3.54a2.5,2.5,0,0,1,.28-.85c1-2.76,5.68-9.62,10.07-15.75l8.5-11.82L169,32.11c1.07-1.74,2.09-3.26,2.76-4.5,1.13-2.14,1.69-3.83.79-4.28,0,0,.39-.45,1.63.68C175.11,24.85,177.13,28,177.08,28.74Z"/><path class="cls-2" d="M213.76,13.06a1.78,1.78,0,0,0-.58-1.49.38.38,0,0,1,.32-.13c1.61,0,5.55,5.1,5.48,7.29-.06,1-2.52,4.51-6.77,9.92-10.12,13.16-21,26.82-27.33,37.27-1.87,3-5.55,8.51-5.67,12-.07.58.12,1,.45,1.1,1.48.38,11.28-8.19,16.05-12.77.64-.64,1-.51.64.07-3.28,5.48-11.66,15.15-14.5,15.15a6.66,6.66,0,0,1-3.61-1.23c-2.06-1.29-4-3.74-3.87-6.12.13-3.93,4.19-10.12,13.86-23.66,3.87-5.42,11.8-16.31,17-23.14C210.54,20.27,213.63,16,213.76,13.06Z"/><path class="cls-2" d="M215.35,44a14.35,14.35,0,0,1,6.13-3.11c2.75-.63,5.87,2.9,6.28,6.85a48.62,48.62,0,0,0,7.79-.05c.68-.1,1.25.21-.31.73a37.2,37.2,0,0,1-7.48.62c-.57,5.87-14.13,21.19-22.7,19.69-1.92-.31-6.65-2.7-6.33-6.81C199.14,55.6,208.85,45.89,215.35,44Zm-11.48,22.7c4.31,0,15.69-10.39,19.68-17.76a29.25,29.25,0,0,1-6.23-1c-7.58,2.6-15,13.4-15.06,17A1.48,1.48,0,0,0,203.87,66.66ZM222.31,42.2a4.17,4.17,0,0,0-3,2.75c-.26,1.3,2,2,4.83,2.44a7.58,7.58,0,0,0,.62-2.65C224.9,42.87,224,41.89,222.31,42.2Z"/><path class="cls-2" d="M255.18,49.21c-4.62,5.66-10.49,14.44-10.6,15.53,0,.15.06.26.21.26,1,0,9.77-7.12,16.57-13.82.37-.36.78,0,.52.37-1.19,1.5-3.69,4.36-7.11,7.94s-9.56,9.35-11,9.35c-1.86,0-4.15-3.43-4.05-5.4.05-1.66,4.21-7.22,6.81-10.8-6,6.49-14.86,14.54-17.77,16.1a.71.71,0,0,1-.26.05,4.11,4.11,0,0,1-2.8-1.71,7.14,7.14,0,0,1-1.92-4.42c.1-1.92,6.33-9.87,11.74-17.09a11.46,11.46,0,0,0,2-3.32c.21-.73-.26-1-.78-1.14.11-.06,1-.42,2.13.72a6.46,6.46,0,0,1,2.19,4.89A.83.83,0,0,1,241,47s-3.64,4.15-5.71,6.6c-4,5-6.91,9.65-7,10.69,0,.21.1.52.41.52,1.66,0,19.06-14.18,23-19.06.83-1,1.87-2.6,1.82-4a.79.79,0,0,0-.36-.83,2.59,2.59,0,0,1,2.13.94c1.82,1.81,2.33,3.68,2.23,4.41a.61.61,0,0,1-.11.31S256.38,47.7,255.18,49.21Z"/><path class="cls-2" d="M257.62,64.69c-.94,1.81-1.3,3-1.14,3.27.36.31-.16.52-.73.42s-3.12-3.22-2.54-4.78a19.82,19.82,0,0,1,2-3.64l2.75-4c2.13-3.12,5.77-8.31,7.17-10.28,1.25-2,2-4,1.14-4.47-.05,0,.42-.42,1.66.68.94.88,2.55,3.37,2.55,4.1s-2.34,3.53-5,7.06c1.36-1.45,2.71-2.85,4.26-4.26,2.91-2.65,8.94-7.89,11.28-8.41,1.09-.21,2.7,2.08,2.44,4.57a5.4,5.4,0,0,1-1,3,2.2,2.2,0,0,0-.42-1.56,2.89,2.89,0,0,0-2.75-.93c-3.07.36-6.29,2.49-10,5.71A51.62,51.62,0,0,0,257.62,64.69Z"/><path class="cls-2" d="M283,3.56a7.09,7.09,0,0,1-2.83,2.49c-2.39,1.27-4.79,2.43-7.18,3.6-2.61,1.32-5.28,2.59-7.89,3.86a3.19,3.19,0,0,0-.82.56c-3.59,3.5-7.18,7.06-10.83,10.56a3.25,3.25,0,0,1-1,.66c-1,.56-2.12,1.07-3.21,1.57-.76.36-1.25.36-1.63-.1s-.44-.86,0-1.52l3.1-4.72a4.56,4.56,0,0,0,.38-.61c-2.51.76-4.85,1.47-7.19,2.23-3.1.95-8.77,2.68-11.51,3.46a26.32,26.32,0,0,0-3.39,1.23,171.5,171.5,0,0,1-21.62,7.85c-32.22,9.24-60.9,6.3-65.09-4.72-1.2-3.2,2.83-10,8.87-12.13,7.07-2.49,19.76.4,31,4.87,1.25.51,1,1,.05.71-12.3-2.89-30.48-4.11-34.29-1.72-1.47.86-2.07,2.08-1.79,3.14,2.83,10.72,36.74,13.61,65.91,5.28a172.49,172.49,0,0,0,18.4-6.55s1-.55,1.57-.81c-1-1.17-2-2.33-3-3.5-1.47-1.68-2.88-3.35-4.35-5-.77-.91-.6-1.72.49-2.28.49-.26.92-.46,1.36-.66a1.83,1.83,0,0,1,1.85,0c3.28,1.6,6.61,3.16,9.89,4.81h1.21c9.8-4.72,19.66-9.45,29.46-14.22A15.3,15.3,0,0,1,275.64.26c1.36,0,2.72-.31,4.14-.25a6.13,6.13,0,0,1,2.45.6A1.86,1.86,0,0,1,283,3.56Z"/></g></g></svg>